<svg width="157.000000" height="128.000000" viewBox="0 0 157 128" fill="none" xmlns="http://www.w3.org/2000/svg" xmlns:xlink="http://www.w3.org/1999/xlink">
	<desc>
			Created with Pixso.
	</desc>
	<defs>
		<clipPath id="clip41_730">
			<rect id="add-btn" width="157.000000" height="128.000000" fill="white" fill-opacity="0"/>
		</clipPath>
	</defs>
	<g clip-path="url(#clip41_730)">
		<path id="Vector" d="M15.75 1C7.59 1 1 6.32 1 12.9L1 114.13C1 120.7 7.59 126.03 15.75 126.03L141.14 126.03C149.28 126.03 155.89 120.7 155.89 114.13L155.89 12.9C155.89 6.32 149.28 1 141.14 1L15.75 1Z" fill="#000000" fill-opacity="0" fill-rule="nonzero"/>
		<path id="Vector" d="M1 12.9L1 114.13C1 120.7 7.59 126.03 15.75 126.03L141.14 126.03C149.28 126.03 155.89 120.7 155.89 114.13L155.89 12.9C155.89 6.32 149.28 1 141.14 1L15.75 1C7.59 1 1 6.32 1 12.9Z" stroke="#0E18FF" stroke-opacity="1.000000" stroke-width="2.000000" stroke-linejoin="round"/>
		<path id="Vector" d="M76.51 50.02L76.49 50C76.49 49.16 77.15 48.5 77.99 48.5C78.83 48.5 79.49 49.16 79.49 50L79.47 50.02L76.51 50.02ZM79.47 77.98L79.49 78C79.49 78.83 78.83 79.5 77.99 79.5C77.15 79.5 76.49 78.83 76.49 78L76.51 77.98L79.47 77.98Z" fill="#000000" fill-opacity="0" fill-rule="nonzero"/>
		<path id="Vector" d="M77.99 50L77.99 78" stroke="#0E18FF" stroke-opacity="1.000000" stroke-width="3.000000" stroke-linejoin="round" stroke-linecap="round"/>
		<path id="Vector_2" d="M64.01 65.48L64 65.5C63.16 65.5 62.5 64.84 62.5 64C62.5 63.16 63.16 62.5 64 62.5L64.01 62.52L64.01 65.48ZM91.98 62.52L92 62.5C92.84 62.5 93.5 63.16 93.5 64C93.5 64.84 92.84 65.5 92 65.5L91.98 65.48L91.98 62.52Z" fill="#000000" fill-opacity="0" fill-rule="nonzero"/>
		<path id="Vector_2" d="M64 64L92 64" stroke="#0E18FF" stroke-opacity="1.000000" stroke-width="3.000000" stroke-linejoin="round" stroke-linecap="round"/>
	</g>
</svg>
