<svg width="250" height="200" viewBox="0 0 250 200" fill="none" xmlns="http://www.w3.org/2000/svg">
<path d="M217.747 17.3329C216.341 15.3279 213.961 14.4246 211.631 14.7707C211.542 14.7496 211.453 14.7116 211.365 14.6989L115.948 0.693511C114.905 0.537332 113.842 0.651302 112.85 1.01431L36.4276 29.0252C36.3938 29.0378 36.3643 29.059 36.3305 29.0716C36.2503 29.1054 36.1743 29.156 36.0899 29.1856C35.672 29.3713 35.2837 29.5908 34.9249 29.8483C34.8152 29.9285 34.7096 30.0087 34.5999 30.0973C34.2073 30.4181 33.8485 30.7685 33.5488 31.1695C33.532 31.1948 33.5066 31.2075 33.4897 31.2328L1.21984 75.3765C-0.0169317 77.0692 -0.337731 79.2725 0.367184 81.248C1.0721 83.2277 2.71409 84.7219 4.74863 85.2453L32.7511 92.476V161.705C32.7511 164.487 34.5703 166.948 37.2338 167.763L139.763 199.091C139.797 199.108 139.835 199.095 139.869 199.112C140.417 199.264 140.991 199.361 141.565 199.366C141.578 199.366 141.595 199.374 141.612 199.374C142.216 199.374 142.811 199.264 143.402 199.091C143.587 199.032 143.76 198.952 143.95 198.872C144.199 198.779 144.444 198.711 144.689 198.585L218.262 157.754C220.275 156.636 221.521 154.517 221.521 152.216V82.9997L246.408 71.0542C248.084 70.2522 249.32 68.7452 249.793 66.9471C250.262 65.1447 249.92 63.2326 248.852 61.7088L217.747 17.3329ZM115.699 13.458L190.175 24.3905L140.772 47.3614L62.539 32.9465L115.699 13.458ZM41.3704 41.9205L131.013 58.4417L104.665 97.9676L16.9517 75.3216L41.3704 41.9205ZM45.4142 157.02V95.7431L105.851 111.348C106.379 111.479 106.906 111.551 107.434 111.551C109.515 111.551 111.507 110.521 112.702 108.731L135.28 74.8658V184.478L45.4142 157.02ZM208.853 148.485L147.939 182.283V82.2737L159.062 105.907C159.784 107.431 161.084 108.613 162.666 109.17C163.355 109.423 164.072 109.537 164.785 109.537C165.727 109.537 166.66 109.326 167.525 108.921L208.845 89.0907L208.853 148.485ZM167.808 94.7427L150.05 57.015L210.419 28.945L234.201 62.8695L167.808 94.7427Z" fill="black"/>
</svg>
