<svg width="29" height="30" viewBox="0 0 29 30" fill="none" xmlns="http://www.w3.org/2000/svg">
<path d="M13.4705 19.935C13.4081 20.0063 13.35 20.0814 13.2965 20.16C13.2416 20.2436 13.1977 20.3344 13.166 20.43C13.1242 20.515 13.0949 20.606 13.079 20.7C13.0719 20.7999 13.0719 20.9001 13.079 21C13.0741 21.1968 13.1138 21.392 13.195 21.57C13.2601 21.7561 13.364 21.9252 13.4993 22.0652C13.6346 22.2051 13.7981 22.3126 13.978 22.38C14.1516 22.4594 14.3392 22.5003 14.529 22.5003C14.7188 22.5003 14.9064 22.4594 15.08 22.38C15.2599 22.3126 15.4234 22.2051 15.5587 22.0652C15.694 21.9252 15.7979 21.7561 15.863 21.57C15.9274 21.3876 15.9569 21.194 15.95 21C15.9511 20.8026 15.9145 20.6069 15.8424 20.4241C15.7702 20.2414 15.6639 20.0752 15.5295 19.935C15.3947 19.7944 15.2343 19.6828 15.0576 19.6067C14.8809 19.5305 14.6914 19.4913 14.5 19.4913C14.3086 19.4913 14.1191 19.5305 13.9424 19.6067C13.7657 19.6828 13.6053 19.7944 13.4705 19.935ZM14.5 0C11.6322 0 8.82875 0.879734 6.44424 2.52796C4.05972 4.17618 2.20122 6.51885 1.10375 9.25975C0.00628262 12.0006 -0.280866 15.0166 0.27862 17.9263C0.838106 20.8361 2.2191 23.5088 4.24696 25.6066C6.27482 27.7044 8.85847 29.133 11.6712 29.7118C14.4839 30.2905 17.3994 29.9935 20.0489 28.8582C22.6984 27.7229 24.963 25.8003 26.5563 23.3335C28.1496 20.8668 29 17.9667 29 15C29 13.0302 28.6249 11.0796 27.8963 9.25975C27.1676 7.43986 26.0995 5.78628 24.753 4.3934C23.4066 3.00052 21.8081 1.89563 20.0489 1.14181C18.2897 0.387986 16.4042 0 14.5 0ZM14.5 27C12.2057 27 9.963 26.2962 8.05539 24.9776C6.14778 23.6591 4.66098 21.7849 3.783 19.5922C2.90503 17.3995 2.67531 14.9867 3.1229 12.6589C3.57049 10.3311 4.67528 8.19295 6.29757 6.51472C7.91986 4.83649 9.98678 3.6936 12.237 3.23058C14.4871 2.76755 16.8195 3.00519 18.9391 3.91344C21.0588 4.8217 22.8704 6.35977 24.145 8.33315C25.4197 10.3065 26.1 12.6266 26.1 15C26.1 18.1826 24.8779 21.2348 22.7024 23.4853C20.527 25.7357 17.5765 27 14.5 27ZM14.5 7.5C13.7359 7.49949 12.9852 7.70718 12.3234 8.10216C11.6616 8.49714 11.112 9.06549 10.73 9.75C10.6251 9.92072 10.5546 10.1116 10.5229 10.3113C10.4912 10.5109 10.4988 10.7151 10.5453 10.9116C10.5918 11.1081 10.6763 11.2928 10.7936 11.4546C10.911 11.6165 11.0587 11.7521 11.228 11.8534C11.3973 11.9546 11.5847 12.0194 11.7788 12.0438C11.973 12.0682 12.1699 12.0517 12.3577 11.9953C12.5455 11.9389 12.7204 11.8439 12.8717 11.7158C13.0231 11.5877 13.1479 11.4293 13.2385 11.25C13.3663 11.0211 13.5502 10.8312 13.7717 10.6995C13.9933 10.5678 14.2445 10.4989 14.5 10.5C14.8846 10.5 15.2534 10.658 15.5253 10.9393C15.7972 11.2206 15.95 11.6022 15.95 12C15.95 12.3978 15.7972 12.7794 15.5253 13.0607C15.2534 13.342 14.8846 13.5 14.5 13.5C14.1154 13.5 13.7466 13.658 13.4747 13.9393C13.2028 14.2206 13.05 14.6022 13.05 15V16.5C13.05 16.8978 13.2028 17.2793 13.4747 17.5607C13.7466 17.842 14.1154 18 14.5 18C14.8846 18 15.2534 17.842 15.5253 17.5607C15.7972 17.2793 15.95 16.8978 15.95 16.5V16.23C16.909 15.87 17.7152 15.1728 18.2276 14.2603C18.7401 13.3478 18.9262 12.2779 18.7534 11.2378C18.5807 10.1977 18.06 9.25352 17.2825 8.57027C16.505 7.88702 15.5201 7.50819 14.5 7.5Z" fill="white"/>
</svg>
