<svg width="29" height="29" viewBox="0 0 29 29" fill="none" xmlns="http://www.w3.org/2000/svg">
<path d="M25.579 15.921C25.6387 15.457 25.6834 14.993 25.6834 14.5C25.6834 14.007 25.6387 13.543 25.579 13.079L28.7244 10.6865C29.0076 10.469 29.0821 10.0775 28.9032 9.7585L25.9219 4.7415C25.743 4.4225 25.3405 4.3065 25.0126 4.4225L21.3008 5.8725C20.5256 5.2925 19.6908 4.814 18.7815 4.4515L18.2151 0.609C18.1704 0.261 17.8573 0 17.4846 0H11.5219C11.1493 0 10.8362 0.261 10.7915 0.609L10.225 4.4515C9.31574 4.814 8.48096 5.307 7.7058 5.8725L3.99402 4.4225C3.65116 4.292 3.26359 4.4225 3.08471 4.7415L0.103351 9.7585C-0.090437 10.0775 -0.00099623 10.469 0.282232 10.6865L3.42756 13.079C3.36793 13.543 3.32321 14.0215 3.32321 14.5C3.32321 14.9785 3.36793 15.457 3.42756 15.921L0.282232 18.3135C-0.00099623 18.531 -0.0755303 18.9225 0.103351 19.2415L3.08471 24.2585C3.26359 24.5775 3.66607 24.6935 3.99402 24.5775L7.7058 23.1275C8.48096 23.7075 9.31574 24.186 10.225 24.5485L10.7915 28.391C10.8362 28.739 11.1493 29 11.5219 29H17.4846C17.8573 29 18.1704 28.739 18.2151 28.391L18.7815 24.5485C19.6908 24.186 20.5256 23.693 21.3008 23.1275L25.0126 24.5775C25.3554 24.708 25.743 24.5775 25.9219 24.2585L28.9032 19.2415C29.0821 18.9225 29.0076 18.531 28.7244 18.3135L25.579 15.921ZM14.5033 19.575C11.6263 19.575 9.28592 17.2985 9.28592 14.5C9.28592 11.7015 11.6263 9.425 14.5033 9.425C17.3803 9.425 19.7207 11.7015 19.7207 14.5C19.7207 17.2985 17.3803 19.575 14.5033 19.575Z" fill="white"/>
</svg>
